<?xml version="1.0" encoding="UTF-8"?>
<svg id="Layer_1" data-name="Layer 1" xmlns="http://www.w3.org/2000/svg" viewBox="0 0 512 512">
  <path d="M0,234c1.66-10.16,3.02-20.38,5.03-30.48,4.29-21.64,11.57-42.29,21.78-62.54,30.58,17.66,60.91,35.17,90.4,52.19-4.32,16.02-8.46,31.36-12.9,47.82H0v-7Z"/>
  <path d="M0,271H104.34c4.34,16.18,8.5,31.66,12.84,47.83-29.34,16.95-59.56,34.4-90.19,52.09-.9-1.64-1.74-3-2.42-4.43-12.81-26.84-20.77-55.03-23.67-84.65-.13-1.3-.59-2.56-.9-3.84,0-2.33,0-4.67,0-7Z"/>
  <path d="M278,0c10.15,1.66,20.36,3.03,30.44,5.02,21.65,4.27,42.28,11.56,62.55,21.76-17.66,30.6-35.17,60.93-52.18,90.4-16.01-4.31-31.36-8.44-47.82-12.87V0c2.33,0,4.67,0,7,0Z"/>
  <path d="M271,512v-104.35c16.19-4.34,31.67-8.49,47.83-12.82,16.95,29.36,34.4,59.58,52.39,90.73-9.33,3.9-18.19,7.96-27.3,11.34-20.38,7.57-41.43,12.34-63.11,14.27-.95,.09-1.87,.54-2.8,.83h-7Z"/>
  <path d="M241,0V104.34c-16.18,4.35-31.67,8.51-47.81,12.84-16.95-29.36-34.4-59.59-52.41-90.77,10.11-4.18,19.73-8.58,29.64-12.16,19.49-7.02,39.6-11.52,60.26-13.39,1.12-.1,2.21-.56,3.32-.86,2.33,0,4.67,0,7,0Z"/>
  <path d="M234,512c-10.15-1.66-20.36-3.02-30.44-5.03-21.64-4.31-42.29-11.56-62.55-21.78,17.64-30.56,35.15-60.9,52.18-90.39,16,4.31,31.35,8.45,47.8,12.88v104.32h-7Z"/>
  <path d="M512,241h-104.35c-4.33-16.17-8.49-31.65-12.82-47.8,29.34-16.95,59.56-34.4,90.32-52.16,1.01,1.97,1.94,3.65,2.75,5.38,12.57,26.75,20.45,54.8,23.24,84.25,.11,1.12,.57,2.22,.87,3.32v7Z"/>
  <path d="M512,278c-1.66,10.15-3.03,20.36-5.03,30.44-4.3,21.64-11.57,42.28-21.76,62.54-30.58-17.65-60.91-35.16-90.41-52.19,4.31-15.99,8.45-31.33,12.88-47.78h104.32v7Z"/>
  <path d="M255.88,158.23c13.06,21.09,25.48,41.16,37.9,61.23,5.95,9.62,12.12,19.11,17.76,28.92,12.53,21.81,13.24,44.17,.59,65.97-12.73,21.94-32.51,32.89-57.92,32.56-46.55-.61-78.37-51.43-56.47-92.71,17.34-32.68,38.26-63.45,58.14-95.97Z"/>
  <path d="M470.23,115.01c-30.7,17.72-60.93,35.17-90.48,52.23-11.68-11.7-23.02-23.06-34.95-35.02,16.92-29.31,34.43-59.65,52.19-90.42,29.41,19.48,53.51,43.64,73.24,73.21Z"/>
  <path d="M396.86,469.95c-17.52-30.35-35.05-60.69-52.08-90.19,11.78-11.78,23.14-23.15,34.98-34.99,29.3,16.91,59.54,34.36,89.74,51.79-5.53,16.16-48.73,59.84-72.64,73.39Z"/>
  <path d="M167.24,132.26c-11.79,11.77-23.15,23.13-34.98,34.95-29.41-16.98-59.76-34.5-90.43-52.21,19.54-29.48,43.72-53.56,73.18-73.2,17.68,30.61,35.2,60.96,52.24,90.46Z"/>
  <path d="M132.27,344.78c11.79,11.79,23.16,23.16,34.96,34.96-17,29.45-34.52,59.79-52.21,90.43-29.48-19.56-53.59-43.69-73.2-73.16,30.64-17.69,60.98-35.21,90.45-52.23Z"/>
</svg>