<?xml version="1.0" encoding="UTF-8"?>
<svg id="Layer_1" data-name="Layer 1" xmlns="http://www.w3.org/2000/svg" viewBox="0 0 42.34 40.98">
  <defs>
    <style>
      .cls-1 {
        fill: #fff;
      }
    </style>
  </defs>
  <path class="cls-1" d="M42.34,28.53v.17c-.16,.1-.33,.21-.49,.31-4.74,2.78-9.48,5.55-14.23,8.32-2.09,1.22-4.19,2.43-6.28,3.65h-.42c-.05-.04-.1-.09-.16-.12-6.73-3.91-13.45-7.82-20.17-11.74-.2-.12-.39-.28-.58-.42v-.25c.09-.12,.18-.25,.27-.38C7.18,18.72,14.09,9.36,21,0h.25c.1,.15,.2,.3,.31,.44,6.78,9.18,13.55,18.37,20.33,27.55,.14,.19,.29,.36,.44,.54h0ZM18.86,10.48c-4.22,5.67-8.38,11.26-12.56,16.88,4.2,2.46,8.36,4.9,12.56,7.36V10.48Zm4.49,24.26c4.22-2.47,8.38-4.91,12.58-7.37-4.18-5.62-8.34-11.2-12.49-16.79-.03,.02-.06,.03-.09,.05v24.11h0Z"/>
</svg>