<svg version="1.1" viewBox="0 0 32 32" xmlns="http://www.w3.org/2000/svg">
 <g>
  <rect x="12.25" y="4.25" width="15.5" height="14.5" fill="#575757" stroke="#c2bdbd" stroke-width="2.5"/>
  <rect x="4.25" y="13.25" width="15.5" height="14.5" fill="#575757" stroke="#c2bdbd" stroke-width="2.5"/>
  <g transform="matrix(1.5294 0 0 1.5294 -10.181 -4.4118)" opacity=".2">
   <path transform="matrix(.91 .41 -.41 .91 11.81 .06)" d="m15.977 10.752a1.609 1.609 0 0 1 1.033-1.5 6.376 6.376 0 0 0-0.772-1.859 1.632 1.632 0 0 1-0.655 0.14 1.606 1.606 0 0 1-1.469-2.26 6.363 6.363 0 0 0-1.858-0.773 1.609 1.609 0 0 1-3 0 6.382 6.382 0 0 0-1.86 0.772 1.606 1.606 0 0 1-1.469 2.26 1.579 1.579 0 0 1-0.655-0.14 6.517 6.517 0 0 0-0.772 1.862 1.608 1.608 0 0 1 0 3 6.376 6.376 0 0 0 0.772 1.859 1.606 1.606 0 0 1 2.128 2.122 6.419 6.419 0 0 0 1.86 0.772 1.606 1.606 0 0 1 3 0 6.382 6.382 0 0 0 1.86-0.772 1.608 1.608 0 0 1 2.121-2.12 6.413 6.413 0 0 0 0.772-1.859 1.617 1.617 0 0 1-1.036-1.504zm-5.193 2.6a2.6 2.6 0 1 1 2.606-2.6 2.6 2.6 0 0 1-2.606 2.602z"/>
  </g>
 </g>
 <g transform="matrix(1.5294 0 0 1.5294 -11.181 -5.4118)">
  <path transform="matrix(.91 .41 -.41 .91 11.81 .06)" d="m15.977 10.752a1.609 1.609 0 0 1 1.033-1.5 6.376 6.376 0 0 0-0.772-1.859 1.632 1.632 0 0 1-0.655 0.14 1.606 1.606 0 0 1-1.469-2.26 6.363 6.363 0 0 0-1.858-0.773 1.609 1.609 0 0 1-3 0 6.382 6.382 0 0 0-1.86 0.772 1.606 1.606 0 0 1-1.469 2.26 1.579 1.579 0 0 1-0.655-0.14 6.517 6.517 0 0 0-0.772 1.862 1.608 1.608 0 0 1 0 3 6.376 6.376 0 0 0 0.772 1.859 1.606 1.606 0 0 1 2.128 2.122 6.419 6.419 0 0 0 1.86 0.772 1.606 1.606 0 0 1 3 0 6.382 6.382 0 0 0 1.86-0.772 1.608 1.608 0 0 1 2.121-2.12 6.413 6.413 0 0 0 0.772-1.859 1.617 1.617 0 0 1-1.036-1.504zm-5.193 2.6a2.6 2.6 0 1 1 2.606-2.6 2.6 2.6 0 0 1-2.606 2.602z" fill="#e1e1e1"/>
 </g>
</svg>
