<?xml version="1.0" encoding="UTF-8"?>
<svg id="Layer_1" data-name="Layer 1" xmlns="http://www.w3.org/2000/svg" viewBox="0 0 458.65 457.35">
  <defs>
    <style>
      .cls-1 {
        fill: #fff;
      }

      .cls-2 {
        fill: #fdfdfd;
      }

      .cls-3 {
        fill: #010101;
      }
    </style>
  </defs>
  <g>
    <path class="cls-1" d="M229.26,100.31c1.57,.5,2.24,1.91,3.12,3.09,16.75,22.65,33.41,45.36,50.24,67.95,25.96,34.85,52.03,69.61,78.05,104.41,3.4,4.54,3.4,4.57-1.46,7.38-41.73,24.13-83.49,48.22-125.16,72.46-3.45,2.01-6.02,1.88-9.43-.1-41.69-24.2-83.47-48.26-125.22-72.35-4.71-2.72-4.81-3.05-1.56-7.37,43.09-57.21,86.28-114.34,128.33-172.33,.86-1.18,1.54-2.6,3.1-3.14Z"/>
    <path class="cls-3" d="M243.44,318.09V167.18c1.71-.03,1.99,1.39,2.63,2.24,24.95,33.18,49.84,66.39,74.81,99.56,1.59,2.11,2.32,3.16-.7,4.89-25.07,14.37-50.02,28.95-75.01,43.47-.37,.22-.79,.35-1.72,.75Z"/>
    <path class="cls-3" d="M214.97,167.15v150.41c-1.27,.51-2.1-.6-3.06-1.16-24.32-14.11-48.62-28.25-72.95-42.36-2-1.16-3.91-1.65-1.59-4.72,25.28-33.43,50.39-66.99,75.57-100.49,.48-.64,.73-1.65,2.03-1.68Z"/>
  </g>
  <path class="cls-2" d="M197.52,457.35c-6.48-3.1-13.69-3.08-20.51-4.76-62.72-15.52-111.01-50.85-144.41-105.99C5.94,302.57-4.82,254.3,1.99,203.43,13.96,114.11,61.9,50.27,145.57,16.61c119.72-48.17,253.25,12.16,298.82,132.95,9.48,25.13,14.17,51.22,14.26,78.1,.03,10.31-6.28,17.54-15.48,17.76-9.43,.23-16.38-6.84-16.48-17.43-.27-28.36-5.84-55.57-18.18-81.11-29.4-60.83-77.18-98.91-143.67-111.24-90.88-16.85-178.72,30.56-216.21,115.08-37.18,83.83-9.3,185.42,65.43,238.59,33.62,23.92,70.96,36.52,112.27,37.24,2.32,.04,4.68,.19,6.93,.71,6.26,1.44,10.11,5.57,11.74,11.65,1.55,5.79-.22,10.79-4.25,15.12-1.05,1.13-2.87,1.53-3.23,3.32h-39.98Z"/>
  <path class="cls-2" d="M360.46,457.35c-6.68-5-8.52-11.68-8.39-19.89,.39-24.81,.14-49.63,.14-74.44,0-1.6,0-3.21,0-6.15-5.53,6.15-10.19,11.44-14.97,16.61-4.51,4.89-10.25,6.21-16.43,4.47-5.87-1.66-9.57-5.88-10.95-11.87-1.2-5.23,.13-9.96,3.64-13.93,14.23-16.09,28.42-32.21,42.86-48.12,6.59-7.26,16.8-7.35,23.4-.1,14.57,16,28.93,32.2,43.17,48.5,5.7,6.53,4.83,16.44-1.37,22.08-6.43,5.85-16.24,5.54-22.45-.96-4.81-5.03-9.32-10.35-14.9-16.59,0,2.79,0,4.48,0,6.18,0,25.15-.16,50.3,.09,75.44,.08,7.94-2.18,14.26-8.84,18.77h-14.99Z"/>
</svg>