<?xml version="1.0" encoding="utf-8"?>
<!-- Generator: Adobe Illustrator 19.0.0, SVG Export Plug-In . SVG Version: 6.00 Build 0)  -->
<svg version="1.1" id="Layer_1" xmlns="http://www.w3.org/2000/svg" xmlns:xlink="http://www.w3.org/1999/xlink" x="0px" y="0px"
	 viewBox="-284 376 42.3 41" style="enable-background:new -284 376 42.3 41;" xml:space="preserve">
<style type="text/css">
	.st0{fill:#FFFFFF;}
</style>
<path class="st0" d="M160.5,557.3v3.4c-3.2,2-6.6,4.2-9.8,6.2c-94.8,55.6-189.6,111-284.6,166.4c-41.8,24.4-83.8,48.6-125.6,73h-8.4
	c-1-0.8-2-1.8-3.2-2.4c-134.6-78.2-269-156.4-403.4-234.8c-4-2.4-7.8-5.6-11.6-8.4v-5c1.8-2.4,3.6-5,5.4-7.6
	c138-187,276.2-374.2,414.4-561.4h5c2,3,4,6,6.2,8.8c135.6,183.6,271,367.4,406.6,551c2.8,3.8,5.8,7.2,8.8,10.8l0,0H160.5z
	 M-309.1,196.3c-84.4,113.4-167.6,225.2-251.2,337.6c84,49.2,167.2,98,251.2,147.2V196.3z M-219.3,681.5
	c84.4-49.4,167.6-98.2,251.6-147.4c-83.6-112.4-166.8-224-249.8-335.8c-0.6,0.4-1.2,0.6-1.8,1V681.5L-219.3,681.5z"/>
</svg>
