<?xml version="1.0" encoding="utf-8"?> <!-- Generator: Adobe Illustrator 19.0.0, SVG Export Plug-In . SVG Version: 6.00 Build 0) --> <svg version="1.1" id="Layer_1" xmlns="http://www.w3.org/2000/svg" xmlns:xlink="http://www.w3.org/1999/xlink" x="0px" y="0px" viewBox="30.3 132.6 551.5 526.8" style="enable-background:new 30.3 132.6 551.5 526.8;" xml:space="preserve"> <path d="M301.4,132.6c2.3,0,4.1,0,7,0c18.3,23.5,35.8,48.5,54.1,72.8c18.4,24.5,36.6,49.1,54.9,73.6c18.4,24.5,36.9,48.9,55.1,73.6 c18.1,24.5,36.2,49.1,54.2,73.7c18.1,24.7,36.8,48.9,55.1,73.6c-5.2,8-13.8,10.9-21.1,15.2c-11.5,6.8-23.2,13.4-34.6,20.4 c-5.4,3.3-11.3,5.8-16.7,9.1c-12.3,7.4-24.6,15-37.2,21.8c-10.9,5.9-21.3,12.7-32.2,18.6c-10.4,5.6-20.3,12-30.5,18 c-6,3.5-12.2,6.8-18.3,10.2c-12,6.7-23.7,13.8-35.4,20.9c-10.3,6.3-20.9,12-31.8,17.3c-3.5,1.7-5.8,4.9-9.7,6.2 c-4.9,1.6-9.6,2-13.6,1.8c-16.6-8.4-31.9-17.7-47.1-26.9c-14.5-8.7-29.2-17.2-43.8-25.7c-10.4-6.1-20.6-12.5-31.4-18 c-10.8-5.5-20.8-12.5-31.3-18.6c-6-3.6-12.1-7-18.4-10.2c-15.9-8-30.9-17.7-46.4-26.4c-15.5-8.8-31.3-17.3-46.2-27.2 c-0.8-0.5-1.8-0.7-2.9-1c-0.9-1.7-1.8-3.6-2.9-5.7c0.9-2,1.6-4.3,2.9-6c11.8-15.3,24-30.3,35.3-45.9c9.8-13.4,19.8-26.6,29.8-39.8 c12-15.8,23.6-31.9,35.6-47.8c9.3-12.3,19.5-23.9,28-36.6c7.8-11.6,16.7-22.3,24.4-33.9c6.5-9.8,14.5-18.6,21.4-28.1 c6.5-8.9,13.6-17.4,19.5-26.7c4.3-6.9,9.7-13.1,14.6-19.6c6.8-9.1,13.4-18.4,20.2-27.5c6.1-8.5,12.1-17,18.3-25.3 c6.8-9.2,13.8-18.2,20.6-27.4C301.1,134.7,301.1,133.9,301.4,132.6z M334,578c2.5-0.7,4.4-1,6.1-1.8c5.9-3,12.1-5.7,17.6-9.5 c15.3-10.5,31.9-18.6,47.8-28.1c5.4-3.3,11.1-6.2,16.6-9.5c10.4-6.2,20.6-12.9,31.2-18.7c11.7-6.5,23.6-12.7,34.7-20.3 c2.3-1.6,5.2-2.4,7.7-3.6c0-2.2,0-4.2,0-5.9c-6.2-7.9-12.3-15.7-18.4-23.5c-4.7-5.9-9.9-11.5-14-17.8c-8.5-13.1-18.6-25-27.7-37.7 c-6.9-9.6-15-18.3-21.5-28c-8.9-13.3-18.9-25.6-28.5-38.4c-6.8-9.2-13.9-18.2-20.6-27.4c-9-12.3-18.7-24.1-27.2-36.8 c-0.5-0.8-2.1-0.8-3.7-1.4C334,372.5,334,474.5,334,578z M113.3,484.8c7.8,4.2,14.7,7.4,21.2,11.6c14.7,9.5,30.1,18,45.3,26.7 c6.1,3.5,12.5,6.3,18.3,10.2c13,8.8,27.1,15.6,40.3,23.9c8.6,5.4,18.1,9.6,26.3,15.7c3.1,2.3,7.2,3.2,11.1,4.9 c0-103.2,0-205.4,0-308.9c-3.1,3.4-5.9,5.5-7.6,8.3c-6.1,10.4-14.2,19.3-21.2,29.1c-6.8,9.6-15,18.3-21.5,28 c-10.4,15.4-22.2,29.6-32.9,44.7c-8.8,12.6-18.8,24.3-28.1,36.5c-12.2,16.1-24.2,32.3-36.2,48.5 C123.5,470.5,118.9,477.1,113.3,484.8z"/> </svg>