<?xml version="1.0" encoding="iso-8859-1"?>
<!-- Uploaded to: SVG Repo, www.svgrepo.com, Generator: SVG Repo Mixer Tools -->
<svg height="800px" width="800px" version="1.1" id="Layer_1" xmlns="http://www.w3.org/2000/svg" xmlns:xlink="http://www.w3.org/1999/xlink" 
	 viewBox="0 0 512 512" xml:space="preserve">
<g transform="translate(0 -1)">
	<path style="fill:#464F5D;" d="M256,36.31c-141.383,0-256,114.617-256,256V477.69h123.586V292.31
		c0-73.128,59.286-132.414,132.414-132.414h256V36.31H256z"/>
	<g>
		<path style="fill:#FFFFFF;" d="M61.793,442.379c-4.882,0-8.828-3.946-8.828-8.828v-17.655c0-4.882,3.946-8.828,8.828-8.828
			s8.828,3.946,8.828,8.828v17.655C70.621,438.433,66.675,442.379,61.793,442.379"/>
		<path style="fill:#FFFFFF;" d="M299.026,106.931h-37.738c-4.882,0-8.828-3.946-8.828-8.828s3.946-8.828,8.828-8.828h37.738
			c4.882,0,8.828,3.946,8.828,8.828S303.907,106.931,299.026,106.931 M393.384,106.931h-37.738c-4.882,0-8.828-3.946-8.828-8.828
			s3.946-8.828,8.828-8.828h37.738c4.882,0,8.828,3.946,8.828,8.828S398.265,106.931,393.384,106.931 M170.037,126.952
			c-3.257,0-6.391-1.81-7.927-4.917c-2.163-4.37-0.371-9.666,3.999-11.829c11.785-5.817,24.188-10.505,36.855-13.93
			c4.723-1.254,9.543,1.518,10.831,6.223c1.262,4.705-1.518,9.551-6.223,10.831c-11.573,3.116-22.881,7.389-33.633,12.703
			C172.676,126.652,171.343,126.952,170.037,126.952 M98.675,187.244c-1.792,0-3.61-0.547-5.173-1.686
			c-3.946-2.86-4.829-8.377-1.969-12.323c7.715-10.637,16.49-20.559,26.086-29.502c3.566-3.328,9.163-3.143,12.473,0.441
			c3.328,3.566,3.134,9.154-0.441,12.473c-8.766,8.166-16.781,17.231-23.826,26.951C104.104,185.973,101.402,187.244,98.675,187.244
			 M63.709,273.852c-0.406,0-0.821-0.026-1.236-0.088c-4.838-0.68-8.201-5.138-7.512-9.958c1.827-13.038,4.943-25.927,9.251-38.294
			c1.607-4.608,6.621-7.044,11.246-5.438c4.599,1.607,7.036,6.638,5.429,11.246c-3.928,11.282-6.78,23.04-8.448,34.931
			C71.821,270.665,68.043,273.852,63.709,273.852 M61.793,368.113c-4.882,0-8.828-3.946-8.828-8.828v-37.738
			c0-4.882,3.946-8.828,8.828-8.828s8.828,3.946,8.828,8.828v37.738C70.621,364.167,66.675,368.113,61.793,368.113"/>
		<path style="fill:#FFFFFF;" d="M467.862,106.931h-17.655c-4.882,0-8.828-3.946-8.828-8.828s3.946-8.828,8.828-8.828h17.655
			c4.882,0,8.828,3.946,8.828,8.828S472.744,106.931,467.862,106.931"/>
	</g>
</g>
</svg>